<?xml version="1.0" encoding="utf-8"?>
<!-- Generator: Adobe Illustrator 25.2.0, SVG Export Plug-In . SVG Version: 6.00 Build 0)  -->
<svg version="1.1" id="Layer_1" xmlns="http://www.w3.org/2000/svg" xmlns:xlink="http://www.w3.org/1999/xlink" x="0px" y="0px"
	 viewBox="0 0 220 44" style="enable-background:new 0 0 220 44;" xml:space="preserve">
<style type="text/css">
	.st0{clip-path:url(#SVGID_2_);fill:#0E73B9;}
	.st1{clip-path:url(#SVGID_2_);fill:#0A5DA8;}
	.st2{clip-path:url(#SVGID_2_);fill:#C71780;}
	.st3{clip-path:url(#SVGID_2_);fill:#FFFFFF;}
	.st4{clip-path:url(#SVGID_2_);fill:#0C1B23;}
	.st5{clip-path:url(#SVGID_2_);fill:#2CABE1;}
	.st6{fill:#C61881;}
	.st7{fill:#231F20;}
	.st8{fill:#A87C4F;}
	.st9{fill:#0071BB;}
</style>
<g>
	<g>
		<defs>
			<rect id="SVGID_1_" x="1.62" y="0.26" width="168.5" height="43.48"/>
		</defs>
		<clipPath id="SVGID_2_">
			<use xlink:href="#SVGID_1_"  style="overflow:visible;"/>
		</clipPath>
		<path class="st0" d="M59.59,29.68c-0.46,0.12-2.49,0.49-4.86,0.49c-3.69,0-8.71-1.81-8.71-9.41v-4.52c0-7.72,5.02-9.41,8.71-9.41
			c2.37,0,4.4,0.37,4.86,0.49c0.4,0.12,0.68,0.28,0.68,0.71v2.06c0,0.37-0.15,0.65-0.61,0.65h-0.06c-1.08-0.09-3.17-0.25-4.8-0.25
			c-2.58,0-4.46,1.38-4.46,5.75v4.52c0,4.28,1.88,5.75,4.46,5.75c1.63,0,3.72-0.15,4.8-0.25h0.06c0.46,0,0.61,0.28,0.61,0.65v2.06
			C60.27,29.41,59.99,29.56,59.59,29.68"/>
		<path class="st0" d="M80.39,29.93h-3.26c-0.28,0-0.52-0.25-0.58-0.52l-1.41-5.85h-7.08l-1.41,5.85c-0.06,0.28-0.31,0.52-0.58,0.52
			h-3.26c-0.31,0-0.55-0.22-0.55-0.52c0-0.03,0.03-0.09,0.03-0.15l5.05-19.29c0.74-2.86,2.95-3.14,4.28-3.14
			c1.32,0,3.54,0.28,4.28,3.14l5.04,19.29c0,0.06,0.03,0.12,0.03,0.15C80.94,29.71,80.69,29.93,80.39,29.93 M72.08,10.92
			c-0.09-0.37-0.18-0.49-0.49-0.49c-0.31,0-0.4,0.12-0.49,0.49l-2.21,9.14h5.41L72.08,10.92z"/>
		<path class="st0" d="M100.08,29.93h-3.75c-0.34,0-0.46-0.31-0.61-0.61l-4.43-8.21h-0.43c-0.8,0-2.03-0.09-2.74-0.12v8.34
			c0,0.34-0.25,0.61-0.58,0.61h-3.08c-0.34,0-0.61-0.28-0.61-0.61V8.15c0-0.61,0.37-0.83,0.98-0.92c1.6-0.25,3.78-0.4,6.03-0.4
			c4.74,0,8.86,1.69,8.86,6.95v0.28c0,3.26-1.63,5.29-4.15,6.28l4.83,8.98c0.06,0.09,0.06,0.18,0.06,0.25
			C100.45,29.77,100.32,29.93,100.08,29.93 M95.46,13.78c0-2.31-1.54-3.29-4.62-3.29c-0.65,0-2.18,0.06-2.74,0.12v6.92
			c0.49,0.03,2.22,0.09,2.74,0.09c3.17,0,4.62-0.86,4.62-3.57V13.78z"/>
		<path class="st0" d="M127.1,10.43h-5.44V29.3c0,0.34-0.28,0.62-0.62,0.62h-3.08c-0.34,0-0.62-0.28-0.62-0.62V10.43h-5.44
			c-0.34,0-0.62-0.22-0.62-0.56V7.41c0-0.34,0.28-0.59,0.62-0.59h15.2c0.34,0,0.62,0.25,0.62,0.59v2.46
			C127.72,10.21,127.44,10.43,127.1,10.43"/>
		<path class="st0" d="M147.05,29.93h-3.26c-0.28,0-0.52-0.25-0.58-0.52l-1.41-5.85h-7.08l-1.41,5.85
			c-0.06,0.28-0.31,0.52-0.58,0.52h-3.26c-0.31,0-0.55-0.22-0.55-0.52c0-0.03,0.03-0.09,0.03-0.15l5.05-19.29
			c0.74-2.86,2.95-3.14,4.28-3.14c1.32,0,3.54,0.28,4.28,3.14l5.04,19.29c0,0.06,0.03,0.12,0.03,0.15
			C147.61,29.71,147.36,29.93,147.05,29.93 M138.75,10.92c-0.09-0.37-0.18-0.49-0.49-0.49c-0.31,0-0.4,0.12-0.49,0.49l-2.21,9.14
			h5.41L138.75,10.92z"/>
		<path class="st0" d="M156.25,30.17c-2.31,0-3.97-0.22-5.44-0.55c-0.31-0.06-0.58-0.28-0.58-0.62v-2.21c0-0.34,0.28-0.58,0.58-0.58
			h0.06c1.23,0.15,4.31,0.31,5.45,0.31c2.74,0,3.57-0.98,3.57-2.77c0-1.2-0.59-1.82-2.62-3.02l-4.06-2.43
			c-2.86-1.69-3.63-3.48-3.63-5.63c0-3.38,1.97-5.85,7.69-5.85c2.03,0,4.86,0.31,5.91,0.55c0.31,0.06,0.55,0.28,0.55,0.58v2.28
			c0,0.31-0.22,0.55-0.52,0.55h-0.06c-2.03-0.18-4.06-0.31-6.06-0.31c-2.28,0-3.23,0.8-3.23,2.18c0,1.01,0.52,1.63,2.52,2.74
			l3.69,2.06c3.38,1.88,4.28,3.85,4.28,6.28C164.34,26.85,162.4,30.17,156.25,30.17"/>
		<path class="st1" d="M49.17,37.37h-0.56c-0.06,0-0.11-0.05-0.11-0.11v-1.74h-1.62v1.74c0,0.06-0.05,0.11-0.11,0.11H46.2
			c-0.06,0-0.11-0.05-0.11-0.11v-4.01c0-0.06,0.05-0.11,0.11-0.11h0.56c0.06,0,0.11,0.05,0.11,0.11v1.57h1.62v-1.57
			c0-0.06,0.05-0.11,0.11-0.11h0.56c0.06,0,0.11,0.05,0.11,0.11v4.01C49.29,37.32,49.24,37.37,49.17,37.37"/>
		<path class="st1" d="M51.65,37.42c-0.94,0-1.62-0.52-1.62-1.78v-0.77c0-1.25,0.68-1.78,1.62-1.78c0.94,0,1.62,0.52,1.62,1.78v0.77
			C53.28,36.89,52.59,37.42,51.65,37.42 M52.48,34.87c0-0.75-0.27-1.09-0.83-1.09s-0.83,0.34-0.83,1.09v0.77
			c0,0.75,0.27,1.09,0.83,1.09s0.83-0.34,0.83-1.09V34.87z"/>
		<path class="st1" d="M55.09,37.42c-0.43,0-0.74-0.04-1.01-0.1c-0.06-0.01-0.11-0.05-0.11-0.11v-0.41c0-0.06,0.05-0.11,0.11-0.11
			h0.01c0.23,0.03,0.8,0.06,1.01,0.06c0.51,0,0.66-0.18,0.66-0.51c0-0.22-0.11-0.34-0.48-0.56l-0.75-0.45
			c-0.53-0.31-0.67-0.64-0.67-1.04c0-0.63,0.37-1.08,1.43-1.08c0.37,0,0.9,0.06,1.09,0.1c0.06,0.01,0.1,0.05,0.1,0.11v0.42
			c0,0.06-0.04,0.1-0.1,0.1h-0.01c-0.38-0.03-0.75-0.06-1.12-0.06c-0.42,0-0.6,0.15-0.6,0.4c0,0.19,0.1,0.3,0.47,0.51l0.68,0.38
			c0.63,0.35,0.79,0.71,0.79,1.16C56.59,36.8,56.23,37.42,55.09,37.42"/>
		<path class="st1" d="M58.57,35.79c-0.15,0-0.38-0.02-0.51-0.02v1.49c0,0.06-0.04,0.11-0.11,0.11h-0.57
			c-0.06,0-0.11-0.05-0.11-0.11v-3.92c0-0.11,0.07-0.15,0.18-0.17c0.3-0.05,0.7-0.07,1.12-0.07c0.88,0,1.64,0.31,1.64,1.32v0.05
			C60.21,35.47,59.45,35.79,58.57,35.79 M59.42,34.41c0-0.48-0.28-0.66-0.86-0.66c-0.12,0-0.4,0.01-0.51,0.02v1.36
			c0.09,0.01,0.41,0.02,0.51,0.02c0.62,0,0.86-0.23,0.86-0.68V34.41z"/>
		<path class="st1" d="M61.52,37.37h-0.56c-0.06,0-0.11-0.05-0.11-0.11v-4.01c0-0.06,0.05-0.11,0.11-0.11h0.56
			c0.06,0,0.11,0.05,0.11,0.11v4.01C61.63,37.32,61.58,37.37,61.52,37.37"/>
		<path class="st1" d="M65.1,33.8h-1v3.46c0,0.06-0.05,0.11-0.11,0.11h-0.56c-0.06,0-0.11-0.05-0.11-0.11V33.8h-1
			c-0.06,0-0.11-0.04-0.11-0.1v-0.45c0-0.06,0.05-0.11,0.11-0.11h2.79c0.06,0,0.11,0.05,0.11,0.11v0.45
			C65.22,33.76,65.17,33.8,65.1,33.8"/>
		<path class="st1" d="M68.83,37.37h-0.6c-0.05,0-0.1-0.05-0.11-0.1l-0.26-1.08h-1.31l-0.26,1.08c-0.01,0.05-0.06,0.1-0.11,0.1h-0.6
			c-0.06,0-0.1-0.04-0.1-0.1c0-0.01,0.01-0.02,0.01-0.03l0.93-3.57c0.14-0.53,0.55-0.58,0.79-0.58c0.24,0,0.65,0.05,0.79,0.58
			l0.94,3.57c0,0.01,0,0.02,0,0.03C68.93,37.33,68.89,37.37,68.83,37.37 M67.29,33.85c-0.02-0.07-0.03-0.09-0.09-0.09
			c-0.06,0-0.08,0.02-0.09,0.09l-0.41,1.69h1L67.29,33.85z"/>
		<path class="st1" d="M71.75,37.34c-0.17,0.04-0.67,0.08-0.97,0.08c-0.74,0-1.32-0.2-1.32-1.17v-3c0-0.06,0.05-0.11,0.11-0.11h0.57
			c0.06,0,0.11,0.05,0.11,0.11v3c0,0.38,0.11,0.49,0.44,0.49h1.05c0.06,0,0.12,0.05,0.12,0.11v0.36
			C71.87,37.3,71.84,37.32,71.75,37.34"/>
		<path class="st1" d="M77.26,37.37h-0.64c-0.04,0-0.06-0.01-0.1-0.05l-0.21-0.22c-0.29,0.2-0.65,0.31-1.08,0.31
			c-0.82,0-1.51-0.31-1.51-1.1v-0.06c0-0.48,0.28-0.78,0.78-1.08l-0.04-0.05c-0.49-0.56-0.54-0.8-0.54-1.06v-0.05
			c0-0.56,0.43-0.94,1.3-0.94c0.75,0,1.23,0.38,1.23,0.94v0.05c0,0.54-0.42,0.87-0.84,1.13l-0.14,0.09l0.86,0.91
			c0.1-0.23,0.15-0.51,0.15-0.81v-0.07c0-0.06,0.03-0.11,0.1-0.11h0.42c0.06,0,0.1,0.05,0.1,0.11v0.07c0,0.48-0.11,0.92-0.34,1.26
			l0.56,0.59c0.02,0.02,0.02,0.04,0.02,0.06C77.33,37.34,77.3,37.37,77.26,37.37 M74.93,35.63c-0.34,0.2-0.42,0.37-0.42,0.64v0.06
			c0,0.37,0.31,0.54,0.73,0.54c0.29,0,0.51-0.06,0.69-0.17L74.93,35.63z M75.77,34.03c0-0.26-0.19-0.4-0.55-0.4
			c-0.38,0-0.63,0.14-0.63,0.4v0.05c0,0.18,0.01,0.33,0.4,0.72l0.05,0.05l0.17-0.1c0.43-0.26,0.55-0.39,0.55-0.67V34.03z"/>
		<path class="st1" d="M80.03,37.37h-0.56c-0.06,0-0.11-0.05-0.11-0.11v-4.01c0-0.06,0.05-0.11,0.11-0.11h0.56
			c0.06,0,0.11,0.05,0.11,0.11v4.01C80.15,37.32,80.1,37.37,80.03,37.37"/>
		<path class="st1" d="M83.98,37.37H83.4c-0.14,0-0.26,0-0.35-0.21l-1.27-2.78c-0.02-0.03-0.03-0.05-0.05-0.05
			c-0.02,0-0.03,0.01-0.03,0.05v2.87c0,0.06-0.05,0.11-0.11,0.11h-0.48c-0.06,0-0.11-0.05-0.11-0.11v-3.89
			c0-0.13,0.1-0.23,0.23-0.23h0.62c0.12,0,0.18,0.03,0.25,0.18l1.33,2.93c0.01,0.03,0.03,0.05,0.05,0.05c0.01,0,0.03-0.02,0.03-0.05
			v-3c0-0.06,0.05-0.11,0.11-0.11h0.49c0.06,0,0.11,0.05,0.11,0.11v3.9C84.21,37.27,84.1,37.37,83.98,37.37"/>
		<path class="st1" d="M86.13,37.42c-0.43,0-0.74-0.04-1.01-0.1c-0.06-0.01-0.11-0.05-0.11-0.11v-0.41c0-0.06,0.05-0.11,0.11-0.11
			h0.01c0.23,0.03,0.8,0.06,1.01,0.06c0.51,0,0.66-0.18,0.66-0.51c0-0.22-0.11-0.34-0.48-0.56l-0.75-0.45
			c-0.53-0.31-0.67-0.64-0.67-1.04c0-0.63,0.36-1.08,1.43-1.08c0.37,0,0.9,0.06,1.09,0.1c0.06,0.01,0.1,0.05,0.1,0.11v0.42
			c0,0.06-0.04,0.1-0.1,0.1h-0.01c-0.38-0.03-0.75-0.06-1.12-0.06c-0.42,0-0.6,0.15-0.6,0.4c0,0.19,0.1,0.3,0.47,0.51l0.68,0.38
			c0.63,0.35,0.79,0.71,0.79,1.16C87.63,36.8,87.27,37.42,86.13,37.42"/>
		<path class="st1" d="M90.93,33.8h-1v3.46c0,0.06-0.05,0.11-0.11,0.11h-0.56c-0.06,0-0.11-0.05-0.11-0.11V33.8h-1
			c-0.06,0-0.11-0.04-0.11-0.1v-0.45c0-0.06,0.05-0.11,0.11-0.11h2.79c0.06,0,0.11,0.05,0.11,0.11v0.45
			C91.04,33.76,90.99,33.8,90.93,33.8"/>
		<path class="st1" d="M92.29,37.37h-0.56c-0.06,0-0.11-0.05-0.11-0.11v-4.01c0-0.06,0.05-0.11,0.11-0.11h0.56
			c0.06,0,0.11,0.05,0.11,0.11v4.01C92.4,37.32,92.35,37.37,92.29,37.37"/>
		<path class="st1" d="M95.88,33.8h-1v3.46c0,0.06-0.05,0.11-0.11,0.11H94.2c-0.06,0-0.11-0.05-0.11-0.11V33.8h-1
			c-0.06,0-0.11-0.04-0.11-0.1v-0.45c0-0.06,0.05-0.11,0.11-0.11h2.79c0.06,0,0.11,0.05,0.11,0.11v0.45
			C95.99,33.76,95.94,33.8,95.88,33.8"/>
		<path class="st1" d="M98.1,37.42c-0.92,0-1.57-0.4-1.57-1.61v-2.56c0-0.06,0.05-0.11,0.11-0.11h0.56c0.06,0,0.11,0.05,0.11,0.11
			v2.56c0,0.65,0.16,0.96,0.78,0.96c0.62,0,0.77-0.31,0.77-0.96v-2.56c0-0.06,0.05-0.11,0.11-0.11h0.56c0.06,0,0.11,0.05,0.11,0.11
			v2.56C99.67,37.02,99.02,37.42,98.1,37.42"/>
		<path class="st1" d="M103.11,33.8h-1v3.46c0,0.06-0.05,0.11-0.11,0.11h-0.56c-0.06,0-0.11-0.05-0.11-0.11V33.8h-1
			c-0.06,0-0.11-0.04-0.11-0.1v-0.45c0-0.06,0.05-0.11,0.11-0.11h2.79c0.06,0,0.11,0.05,0.11,0.11v0.45
			C103.23,33.76,103.17,33.8,103.11,33.8"/>
		<path class="st1" d="M106.2,37.34c-0.18,0.03-0.4,0.08-1.08,0.08c-0.74,0-1.32-0.2-1.32-1.17v-1.99c0-0.97,0.58-1.17,1.32-1.17
			c0.68,0,0.9,0.05,1.08,0.08c0.09,0.01,0.11,0.04,0.11,0.12v0.37c0,0.06-0.05,0.11-0.11,0.11h-1.16c-0.33,0-0.45,0.11-0.45,0.49
			v0.62h1.54c0.06,0,0.11,0.05,0.11,0.11v0.41c0,0.06-0.05,0.11-0.11,0.11h-1.54v0.73c0,0.38,0.12,0.49,0.45,0.49h1.16
			c0.06,0,0.11,0.05,0.11,0.11v0.36C106.31,37.3,106.28,37.33,106.2,37.34"/>
		<path class="st1" d="M110.02,37.42c-0.94,0-1.63-0.52-1.63-1.78v-0.77c0-1.25,0.68-1.78,1.63-1.78c0.94,0,1.62,0.52,1.62,1.78
			v0.77C111.64,36.89,110.96,37.42,110.02,37.42 M110.84,34.87c0-0.75-0.27-1.09-0.83-1.09c-0.56,0-0.83,0.34-0.83,1.09v0.77
			c0,0.75,0.27,1.09,0.83,1.09c0.56,0,0.83-0.34,0.83-1.09V34.87z"/>
		<path class="st1" d="M114.78,33.77h-1.16c-0.33,0-0.45,0.11-0.45,0.49v0.62h1.54c0.06,0,0.11,0.05,0.11,0.11v0.41
			c0,0.06-0.05,0.11-0.11,0.11h-1.54v1.74c0,0.06-0.05,0.11-0.11,0.11h-0.56c-0.06,0-0.11-0.05-0.11-0.11v-3
			c0-0.97,0.58-1.17,1.32-1.17c0.68,0,0.9,0.05,1.08,0.08c0.09,0.01,0.11,0.04,0.11,0.12v0.37
			C114.9,33.72,114.84,33.77,114.78,33.77"/>
		<path class="st1" d="M120.18,37.37h-0.56c-0.06,0-0.11-0.05-0.11-0.11v-1.74h-1.62v1.74c0,0.06-0.05,0.11-0.11,0.11h-0.56
			c-0.06,0-0.11-0.05-0.11-0.11v-4.01c0-0.06,0.05-0.11,0.11-0.11h0.56c0.06,0,0.11,0.05,0.11,0.11v1.57h1.62v-1.57
			c0-0.06,0.05-0.11,0.11-0.11h0.56c0.06,0,0.11,0.05,0.11,0.11v4.01C120.29,37.32,120.24,37.37,120.18,37.37"/>
		<path class="st1" d="M123.55,37.34c-0.18,0.03-0.4,0.08-1.08,0.08c-0.74,0-1.32-0.2-1.32-1.17v-1.99c0-0.97,0.58-1.17,1.32-1.17
			c0.68,0,0.9,0.05,1.08,0.08c0.09,0.01,0.11,0.04,0.11,0.12v0.37c0,0.06-0.05,0.11-0.11,0.11h-1.16c-0.33,0-0.45,0.11-0.45,0.49
			v0.62h1.54c0.06,0,0.11,0.05,0.11,0.11v0.41c0,0.06-0.05,0.11-0.11,0.11h-1.54v0.73c0,0.38,0.12,0.49,0.45,0.49h1.16
			c0.06,0,0.11,0.05,0.11,0.11v0.36C123.66,37.3,123.63,37.33,123.55,37.34"/>
		<path class="st1" d="M127.48,37.37h-0.61c-0.05,0-0.1-0.05-0.11-0.1l-0.26-1.08h-1.31l-0.26,1.08c-0.01,0.05-0.06,0.1-0.11,0.1
			h-0.61c-0.06,0-0.1-0.04-0.1-0.1c0-0.01,0.01-0.02,0.01-0.03l0.93-3.57c0.14-0.53,0.55-0.58,0.79-0.58c0.25,0,0.66,0.05,0.79,0.58
			l0.93,3.57c0,0.01,0.01,0.02,0.01,0.03C127.58,37.33,127.53,37.37,127.48,37.37 M125.94,33.85c-0.02-0.07-0.03-0.09-0.09-0.09
			c-0.06,0-0.07,0.02-0.09,0.09l-0.41,1.69h1L125.94,33.85z"/>
		<path class="st1" d="M130.4,37.34c-0.17,0.04-0.67,0.08-0.97,0.08c-0.74,0-1.32-0.2-1.32-1.17v-3c0-0.06,0.05-0.11,0.11-0.11h0.56
			c0.06,0,0.11,0.05,0.11,0.11v3c0,0.38,0.11,0.49,0.45,0.49h1.05c0.06,0,0.11,0.05,0.11,0.11v0.36
			C130.52,37.3,130.49,37.32,130.4,37.34"/>
		<path class="st1" d="M133.67,33.8h-1v3.46c0,0.06-0.05,0.11-0.11,0.11H132c-0.06,0-0.11-0.05-0.11-0.11V33.8h-1
			c-0.06,0-0.11-0.04-0.11-0.1v-0.45c0-0.06,0.05-0.11,0.11-0.11h2.79c0.06,0,0.11,0.05,0.11,0.11v0.45
			C133.79,33.76,133.74,33.8,133.67,33.8"/>
		<path class="st1" d="M137.45,37.37h-0.56c-0.06,0-0.11-0.05-0.11-0.11v-1.74h-1.62v1.74c0,0.06-0.05,0.11-0.11,0.11h-0.56
			c-0.06,0-0.11-0.05-0.11-0.11v-4.01c0-0.06,0.05-0.11,0.11-0.11h0.56c0.06,0,0.11,0.05,0.11,0.11v1.57h1.62v-1.57
			c0-0.06,0.05-0.11,0.11-0.11h0.56c0.06,0,0.11,0.05,0.11,0.11v4.01C137.56,37.32,137.51,37.37,137.45,37.37"/>
		<path class="st1" d="M140.91,37.42c-0.43,0-0.73-0.04-1.01-0.1c-0.06-0.01-0.11-0.05-0.11-0.11v-0.41c0-0.06,0.05-0.11,0.11-0.11
			h0.01c0.23,0.03,0.8,0.06,1.01,0.06c0.51,0,0.66-0.18,0.66-0.51c0-0.22-0.11-0.34-0.48-0.56l-0.75-0.45
			c-0.53-0.31-0.67-0.64-0.67-1.04c0-0.63,0.37-1.08,1.43-1.08c0.38,0,0.9,0.06,1.09,0.1c0.06,0.01,0.1,0.05,0.1,0.11v0.42
			c0,0.06-0.04,0.1-0.1,0.1h-0.01c-0.38-0.03-0.76-0.06-1.13-0.06c-0.42,0-0.6,0.15-0.6,0.4c0,0.19,0.1,0.3,0.47,0.51l0.68,0.38
			c0.63,0.35,0.79,0.71,0.79,1.16C142.41,36.8,142.05,37.42,140.91,37.42"/>
		<path class="st1" d="M145.49,37.33c-0.09,0.02-0.46,0.09-0.9,0.09c-0.68,0-1.61-0.34-1.61-1.74v-0.84c0-1.43,0.93-1.74,1.61-1.74
			c0.44,0,0.82,0.07,0.9,0.09c0.07,0.02,0.12,0.05,0.12,0.13v0.38c0,0.07-0.03,0.12-0.11,0.12h-0.01c-0.2-0.02-0.59-0.05-0.89-0.05
			c-0.48,0-0.83,0.26-0.83,1.07v0.84c0,0.79,0.35,1.07,0.83,1.07c0.3,0,0.69-0.03,0.89-0.05h0.01c0.09,0,0.11,0.05,0.11,0.12v0.38
			C145.62,37.28,145.57,37.31,145.49,37.33"/>
		<path class="st1" d="M146.98,37.37h-0.56c-0.06,0-0.11-0.05-0.11-0.11v-4.01c0-0.06,0.05-0.11,0.11-0.11h0.56
			c0.06,0,0.11,0.05,0.11,0.11v4.01C147.09,37.32,147.04,37.37,146.98,37.37"/>
		<path class="st1" d="M150.35,37.34c-0.18,0.03-0.4,0.08-1.08,0.08c-0.74,0-1.32-0.2-1.32-1.17v-1.99c0-0.97,0.58-1.17,1.32-1.17
			c0.68,0,0.9,0.05,1.08,0.08c0.09,0.01,0.11,0.04,0.11,0.12v0.37c0,0.06-0.05,0.11-0.11,0.11h-1.16c-0.33,0-0.45,0.11-0.45,0.49
			v0.62h1.54c0.06,0,0.11,0.05,0.11,0.11v0.41c0,0.06-0.05,0.11-0.11,0.11h-1.54v0.73c0,0.38,0.12,0.49,0.45,0.49h1.16
			c0.06,0,0.11,0.05,0.11,0.11v0.36C150.47,37.3,150.44,37.33,150.35,37.34"/>
		<path class="st1" d="M154.21,37.37h-0.58c-0.14,0-0.26,0-0.35-0.21l-1.26-2.78c-0.02-0.03-0.03-0.05-0.05-0.05
			c-0.02,0-0.03,0.01-0.03,0.05v2.87c0,0.06-0.05,0.11-0.11,0.11h-0.48c-0.06,0-0.11-0.05-0.11-0.11v-3.89
			c0-0.13,0.1-0.23,0.23-0.23h0.62c0.12,0,0.18,0.03,0.25,0.18l1.33,2.93c0.01,0.03,0.03,0.05,0.05,0.05c0.01,0,0.03-0.02,0.03-0.05
			v-3c0-0.06,0.05-0.11,0.11-0.11h0.49c0.06,0,0.11,0.05,0.11,0.11v3.9C154.44,37.27,154.34,37.37,154.21,37.37"/>
		<path class="st1" d="M157.69,37.33c-0.09,0.02-0.46,0.09-0.9,0.09c-0.68,0-1.61-0.34-1.61-1.74v-0.84c0-1.43,0.93-1.74,1.61-1.74
			c0.44,0,0.81,0.07,0.9,0.09c0.07,0.02,0.12,0.05,0.12,0.13v0.38c0,0.07-0.03,0.12-0.11,0.12h-0.01c-0.2-0.02-0.59-0.05-0.89-0.05
			c-0.48,0-0.83,0.26-0.83,1.07v0.84c0,0.79,0.35,1.07,0.83,1.07c0.3,0,0.69-0.03,0.89-0.05h0.01c0.09,0,0.11,0.05,0.11,0.12v0.38
			C157.82,37.28,157.77,37.31,157.69,37.33"/>
		<path class="st1" d="M160.9,37.34c-0.18,0.03-0.4,0.08-1.08,0.08c-0.74,0-1.32-0.2-1.32-1.17v-1.99c0-0.97,0.58-1.17,1.32-1.17
			c0.68,0,0.9,0.05,1.08,0.08c0.09,0.01,0.11,0.04,0.11,0.12v0.37c0,0.06-0.05,0.11-0.11,0.11h-1.16c-0.33,0-0.45,0.11-0.45,0.49
			v0.62h1.54c0.06,0,0.11,0.05,0.11,0.11v0.41c0,0.06-0.05,0.11-0.11,0.11h-1.54v0.73c0,0.38,0.12,0.49,0.45,0.49h1.16
			c0.06,0,0.11,0.05,0.11,0.11v0.36C161.02,37.3,160.99,37.33,160.9,37.34"/>
		<path class="st1" d="M162.85,37.42c-0.43,0-0.74-0.04-1.01-0.1c-0.06-0.01-0.11-0.05-0.11-0.11v-0.41c0-0.06,0.05-0.11,0.11-0.11
			h0.01c0.23,0.03,0.8,0.06,1.01,0.06c0.51,0,0.66-0.18,0.66-0.51c0-0.22-0.11-0.34-0.48-0.56l-0.75-0.45
			c-0.53-0.31-0.67-0.64-0.67-1.04c0-0.63,0.36-1.08,1.42-1.08c0.38,0,0.9,0.06,1.09,0.1c0.06,0.01,0.1,0.05,0.1,0.11v0.42
			c0,0.06-0.04,0.1-0.1,0.1h-0.01c-0.38-0.03-0.76-0.06-1.13-0.06c-0.42,0-0.6,0.15-0.6,0.4c0,0.19,0.1,0.3,0.47,0.51l0.68,0.38
			c0.63,0.35,0.79,0.71,0.79,1.16C164.35,36.8,163.99,37.42,162.85,37.42"/>
		<path class="st2" d="M103.92,29.3c0,0.34,0.28,0.62,0.62,0.62h3.08c0.34,0,0.62-0.28,0.62-0.62V11.71h-4.32V29.3z"/>
		<path class="st2" d="M108.24,7.41c0-0.34-0.28-0.59-0.62-0.59h-3.08c-0.34,0-0.62,0.25-0.62,0.59v3.01h4.32V7.41z"/>
		<path class="st2" d="M40.29,15.15h-5.34c-0.83,0-1.5-0.67-1.5-1.5V8.31c0-0.83-0.67-1.5-1.5-1.5H20.96c-0.83,0-1.5,0.67-1.5,1.5
			v5.34c0,0.83-0.67,1.5-1.5,1.5h-5.34c-0.83,0-1.5,0.67-1.5,1.5v11c0,0.83,0.67,1.5,1.5,1.5h5.34c0.83,0,1.5,0.67,1.5,1.5v5.34
			c0,0.83,0.67,1.5,1.5,1.5h10.99c0.83,0,1.5-0.67,1.5-1.5v-5.34c0-0.83,0.67-1.5,1.5-1.5h5.34c0.83,0,1.5-0.67,1.5-1.5v-11
			C41.79,15.82,41.12,15.15,40.29,15.15"/>
		<path class="st3" d="M18.92,21.73v0.17c0,0.02-0.01,0.04-0.02,0.05l-0.75,0.62l0.73,0c0.02,0,0.04,0.02,0.04,0.04l0,0.12
			c0,0.02-0.02,0.04-0.04,0.04l-1.55,0c-0.02,0-0.04-0.02-0.04-0.04l0-0.12c0-0.02,0.02-0.04,0.04-0.04l0.71,0l-0.73-0.63
			c-0.01-0.01-0.02-0.02-0.02-0.04l0-0.16c0-0.02,0.01-0.03,0.03-0.03c0.01,0,0.02,0,0.02,0.01l0.75,0.66l0.79-0.66
			c0.01-0.01,0.02-0.01,0.03-0.01C18.91,21.7,18.92,21.71,18.92,21.73"/>
		<path class="st3" d="M19.1,20.62c0,0.08-0.04,0.3-0.06,0.42c-0.05,0.3-0.19,0.44-0.48,0.4l-0.83-0.14
			c-0.29-0.05-0.38-0.22-0.33-0.53c0.02-0.13,0.06-0.33,0.08-0.42c0-0.01,0.02-0.02,0.03-0.02l0.11,0.02c0.01,0,0.02,0.01,0.02,0.03
			l-0.07,0.42c-0.04,0.23,0.02,0.28,0.18,0.3l0.3,0.05l0.11-0.67c0-0.02,0.03-0.04,0.05-0.04l0.08,0.01c0.02,0,0.04,0.03,0.04,0.05
			l-0.11,0.67l0.37,0.06c0.16,0.03,0.23,0,0.27-0.23l0.07-0.42c0-0.02,0.02-0.02,0.03-0.02l0.11,0.02
			C19.09,20.59,19.1,20.6,19.1,20.62"/>
		<path class="st3" d="M19.52,19.33l-0.04,0.13c-0.01,0.03-0.03,0.05-0.06,0.05l-1.44,0.21c0,0-0.01,0-0.01,0c0,0,0,0,0.01,0
			l1.21,0.43c0.02,0.01,0.03,0.03,0.03,0.05l-0.04,0.11c-0.01,0.02-0.02,0.04-0.04,0.03l-1.46-0.51c-0.03-0.01-0.05-0.05-0.04-0.08
			l0.04-0.11c0.02-0.06,0.03-0.06,0.07-0.07l1.43-0.21l0.01,0c0,0,0,0-0.01,0l-1.21-0.43c-0.02-0.01-0.03-0.03-0.03-0.05l0.04-0.11
			c0.01-0.02,0.03-0.03,0.05-0.02l1.44,0.51C19.51,19.26,19.53,19.3,19.52,19.33"/>
		<path class="st3" d="M19.95,18.55c-0.17,0.3-0.47,0.41-0.9,0.17l-0.25-0.14c-0.42-0.24-0.47-0.56-0.3-0.86
			c0.17-0.3,0.47-0.41,0.89-0.17l0.25,0.14C20.07,17.93,20.12,18.25,19.95,18.55 M19.3,17.72c-0.32-0.19-0.52-0.13-0.64,0.08
			c-0.12,0.21-0.08,0.41,0.24,0.6l0.25,0.14c0.32,0.18,0.52,0.12,0.64-0.08c0.12-0.21,0.07-0.41-0.24-0.59L19.3,17.72z"/>
		<path class="st3" d="M19.91,16.12l-0.28,0.33l1.09,0.91c0.02,0.01,0.02,0.04,0.01,0.06l-0.08,0.09c-0.01,0.02-0.04,0.02-0.06,0
			L19.5,16.6l-0.28,0.33c-0.02,0.02-0.04,0.03-0.06,0.01l-0.07-0.06c-0.02-0.01-0.02-0.04,0-0.06l0.68-0.81
			c0.01-0.02,0.04-0.02,0.06-0.01l0.07,0.06C19.92,16.08,19.92,16.1,19.91,16.12"/>
		<path class="st3" d="M21.34,16.78l-0.09,0.08c-0.02,0.02-0.04,0.01-0.06,0l-1.06-1.13c-0.02-0.02-0.02-0.04,0-0.06l0.09-0.08
			c0.02-0.02,0.04-0.01,0.06,0l1.06,1.13C21.35,16.74,21.36,16.76,21.34,16.78"/>
		<path class="st3" d="M22.33,15.97c-0.06,0.07-0.13,0.13-0.28,0.24c-0.22,0.16-0.55,0.23-0.87-0.2L21,15.77
			c-0.32-0.43-0.16-0.73,0.06-0.89c0.11-0.08,0.23-0.15,0.32-0.19c0.02-0.01,0.03-0.01,0.04,0l0.07,0.09
			c0.01,0.01,0.01,0.02-0.01,0.03c0,0,0,0-0.01,0c-0.07,0.04-0.21,0.13-0.31,0.21c-0.17,0.13-0.23,0.33-0.01,0.63l0.18,0.24
			c0.22,0.3,0.43,0.3,0.6,0.17c0.1-0.08,0.22-0.18,0.28-0.23c0,0,0,0,0.01,0c0.02-0.01,0.03-0.01,0.05,0.01l0.05,0.07
			C22.36,15.93,22.35,15.95,22.33,15.97"/>
		<path class="st3" d="M23.8,15.23c-0.05,0.03-0.19,0.11-0.38,0.19c-0.21,0.1-0.44,0.15-0.59-0.18l-0.49-1.09
			c-0.01-0.02,0-0.05,0.02-0.06l0.1-0.05c0.02-0.01,0.05,0,0.06,0.02l0.49,1.09c0.07,0.15,0.13,0.19,0.34,0.1l0.39-0.18
			c0.01-0.01,0.03,0,0.03,0.01l0.04,0.09C23.82,15.21,23.82,15.22,23.8,15.23"/>
		<path class="st3" d="M24.52,15.04c-0.33,0.09-0.63-0.04-0.75-0.51l-0.07-0.27c-0.13-0.47,0.06-0.73,0.4-0.82
			c0.33-0.09,0.62,0.04,0.75,0.51l0.07,0.27C25.04,14.69,24.85,14.95,24.52,15.04 M24.65,14c-0.1-0.36-0.28-0.45-0.51-0.39
			c-0.23,0.06-0.34,0.24-0.25,0.59l0.07,0.27c0.09,0.36,0.28,0.45,0.51,0.39c0.23-0.06,0.34-0.24,0.25-0.59L24.65,14z"/>
		<path class="st3" d="M26.37,13.18l-0.29,1.46c-0.03,0.14-0.13,0.18-0.21,0.18c-0.08,0.01-0.19-0.01-0.24-0.15l-0.52-1.39
			c0,0,0-0.01,0-0.01c0-0.02,0.01-0.04,0.04-0.04l0.13-0.01c0.02,0,0.03,0.01,0.04,0.03l0.49,1.36c0.01,0.03,0.02,0.04,0.05,0.04
			c0.02,0,0.03-0.02,0.04-0.05l0.28-1.42c0-0.02,0.02-0.03,0.04-0.04l0.13-0.01c0.02,0,0.04,0.01,0.04,0.03
			C26.37,13.17,26.37,13.17,26.37,13.18"/>
		<path class="st3" d="M27.58,14.85c-0.08,0-0.3-0.01-0.43-0.03c-0.31-0.03-0.46-0.16-0.43-0.45l0.07-0.84
			c0.03-0.29,0.19-0.39,0.5-0.37c0.13,0.01,0.34,0.03,0.43,0.05c0.01,0,0.02,0.02,0.02,0.03l-0.01,0.11c0,0.02-0.01,0.02-0.03,0.02
			l-0.42-0.04c-0.23-0.02-0.28,0.04-0.29,0.2l-0.03,0.3l0.67,0.06c0.02,0,0.04,0.02,0.04,0.05l-0.01,0.08
			c0,0.02-0.02,0.04-0.05,0.04l-0.67-0.06l-0.03,0.37c-0.02,0.17,0.02,0.23,0.25,0.25l0.42,0.04c0.02,0,0.02,0.01,0.02,0.03
			l-0.01,0.11C27.6,14.84,27.59,14.85,27.58,14.85"/>
		<path class="st3" d="M28.7,15.14c-0.15-0.05-0.25-0.1-0.34-0.14c-0.03-0.02-0.03-0.03-0.03-0.05l0.03-0.08
			c0.01-0.02,0.03-0.03,0.05-0.02c0,0,0.01,0,0.01,0c0.1,0.04,0.25,0.09,0.34,0.12c0.25,0.08,0.35,0,0.4-0.15
			c0.03-0.1-0.01-0.18-0.16-0.36l-0.16-0.19c-0.16-0.18-0.22-0.32-0.16-0.48c0.08-0.25,0.3-0.31,0.62-0.21
			c0.12,0.04,0.28,0.1,0.36,0.14c0.02,0.01,0.03,0.03,0.02,0.05l-0.03,0.09c-0.01,0.02-0.03,0.03-0.05,0.02c0,0,0,0,0,0
			c-0.09-0.04-0.24-0.09-0.36-0.13c-0.22-0.07-0.32-0.05-0.37,0.1c-0.03,0.1,0.02,0.18,0.15,0.33l0.16,0.18
			c0.2,0.22,0.25,0.37,0.19,0.53C29.29,15.08,29.11,15.27,28.7,15.14"/>
		<path class="st3" d="M30.42,15.88l-0.11-0.06c-0.02-0.01-0.02-0.03-0.02-0.05l0.1-0.51L29.89,15l-0.36,0.38
			c-0.01,0.01-0.04,0.02-0.05,0.01l-0.12-0.06c-0.02-0.01-0.03-0.03-0.02-0.05c0,0,0.01-0.01,0.01-0.01l1.02-1.08
			c0.09-0.1,0.2-0.08,0.28-0.05c0.07,0.04,0.15,0.11,0.12,0.25l-0.3,1.46c0,0,0,0.01,0,0.01C30.46,15.89,30.44,15.89,30.42,15.88
			 M30.59,14.36c0-0.02,0-0.04-0.02-0.05c-0.02-0.01-0.04,0-0.06,0.01L30,14.87l0.43,0.22L30.59,14.36z"/>
		<path class="st3" d="M32.48,15.45l-1.19,0.89c-0.12,0.09-0.21,0.05-0.28,0c-0.06-0.05-0.13-0.13-0.08-0.27l0.54-1.38
			c0,0,0-0.01,0.01-0.01c0.01-0.02,0.04-0.02,0.05-0.01l0.1,0.08c0.01,0.01,0.02,0.03,0.01,0.05l-0.55,1.34
			c-0.01,0.03-0.01,0.05,0.01,0.06c0.02,0.01,0.04,0.01,0.06-0.01l1.15-0.88c0.01-0.01,0.03-0.01,0.05,0l0.1,0.08
			c0.02,0.01,0.02,0.03,0.01,0.05C32.49,15.45,32.49,15.45,32.48,15.45"/>
		<path class="st3" d="M32.27,17.52c-0.06-0.06-0.21-0.21-0.3-0.31c-0.21-0.22-0.23-0.42-0.02-0.62l0.62-0.58
			c0.21-0.2,0.41-0.16,0.62,0.06c0.09,0.1,0.23,0.25,0.28,0.32c0.01,0.01,0,0.03-0.01,0.04l-0.08,0.08c-0.01,0.01-0.03,0.01-0.04,0
			l-0.29-0.31c-0.16-0.17-0.23-0.15-0.35-0.04l-0.22,0.21l0.46,0.49c0.02,0.02,0.02,0.05,0,0.06l-0.06,0.06
			c-0.02,0.02-0.05,0.02-0.06,0l-0.46-0.49l-0.27,0.25c-0.12,0.11-0.14,0.18,0.02,0.35l0.29,0.31c0.01,0.01,0.01,0.03,0,0.04
			l-0.08,0.08C32.3,17.52,32.28,17.52,32.27,17.52"/>
		<path class="st3" d="M32.63,18.04c-0.09-0.13-0.14-0.23-0.18-0.32c-0.01-0.03-0.01-0.04,0.01-0.06l0.07-0.05
			c0.02-0.01,0.04-0.01,0.05,0.01c0,0,0,0,0,0.01c0.05,0.09,0.14,0.22,0.19,0.31c0.15,0.22,0.28,0.22,0.4,0.13
			c0.09-0.06,0.11-0.15,0.09-0.38l-0.01-0.25c-0.01-0.24,0.02-0.38,0.17-0.48c0.22-0.15,0.43-0.06,0.62,0.22
			c0.07,0.11,0.16,0.25,0.19,0.33c0.01,0.02,0.01,0.04-0.01,0.05l-0.08,0.05c-0.02,0.01-0.04,0.01-0.05-0.01c0,0,0,0,0,0
			c-0.05-0.08-0.13-0.21-0.2-0.32c-0.13-0.19-0.22-0.24-0.35-0.15c-0.09,0.06-0.1,0.15-0.09,0.35l0.01,0.24
			c0.02,0.3-0.03,0.44-0.18,0.54C33.13,18.36,32.88,18.4,32.63,18.04"/>
		<path class="st3" d="M33.63,19.99c-0.03-0.05-0.1-0.2-0.18-0.39c-0.09-0.22-0.13-0.45,0.21-0.59l1.11-0.44
			c0.02-0.01,0.05,0,0.06,0.02l0.04,0.1c0.01,0.02,0,0.05-0.02,0.06l-1.11,0.44c-0.16,0.06-0.2,0.12-0.11,0.34l0.16,0.39
			c0.01,0.01,0,0.03-0.01,0.03L33.67,20C33.66,20,33.64,20,33.63,19.99"/>
		<path class="st3" d="M33.72,20.35l-0.03-0.12c-0.01-0.02,0.01-0.04,0.03-0.05l1.49-0.41c0.02-0.01,0.05,0,0.05,0.03l0.03,0.12
			c0.01,0.02-0.01,0.04-0.03,0.05l-1.49,0.41C33.75,20.39,33.73,20.38,33.72,20.35"/>
		<path class="st3" d="M34.71,21.44l-0.1-0.67l-0.71,0.11c-0.02,0-0.05-0.01-0.05-0.04l-0.02-0.11c0-0.02,0.01-0.05,0.04-0.05
			l1.18-0.19c0.29-0.05,0.43,0.09,0.48,0.4c0.02,0.13,0.05,0.33,0.05,0.43c0,0.01-0.01,0.02-0.03,0.03l-0.11,0.02
			c-0.02,0-0.03,0-0.03-0.02l-0.07-0.42c-0.04-0.23-0.1-0.26-0.27-0.23l-0.3,0.05l0.1,0.67c0,0.02-0.01,0.05-0.04,0.05l-0.08,0.01
			C34.73,21.48,34.71,21.47,34.71,21.44"/>
		<path class="st3" d="M33.97,22.74c-0.01-0.08-0.01-0.3-0.01-0.43c0-0.31,0.12-0.47,0.41-0.47l0.85,0c0.29,0,0.41,0.16,0.41,0.47
			c0,0.13,0,0.34-0.01,0.43c0,0.01-0.02,0.02-0.03,0.02h-0.11c-0.01,0-0.03-0.01-0.03-0.02l0-0.42c0-0.23-0.06-0.27-0.23-0.27
			l-0.31,0l0,0.68c0,0.02-0.02,0.04-0.04,0.04h-0.08c-0.02,0-0.04-0.02-0.04-0.04l0-0.68l-0.37,0c-0.17,0-0.23,0.04-0.23,0.27
			l0,0.42c0,0.02-0.01,0.02-0.03,0.02l-0.11,0C33.99,22.77,33.97,22.76,33.97,22.74"/>
		<path class="st3" d="M31.76,23.8c0-0.03,0-0.07-0.01-0.11c-0.09-2.84-2.43-5.12-5.29-5.12h0h0c-2.87,0-5.21,2.28-5.3,5.12
			c0,0.04,0,0.08,0,0.11c0,0.02,0,0.03,0,0.03c0,0.01,0,0.02,0,0.04c0,2.92,2.38,5.31,5.31,5.31c2.93,0,5.3-2.39,5.3-5.31v-0.04
			V23.8z M26.46,27.02c-0.42,0-0.82-0.03-1.21-0.1c-0.09-0.36-0.17-0.78-0.22-1.24c0.45,0.04,0.94,0.06,1.43,0.06
			c0.49,0,0.97-0.03,1.43-0.06c-0.06,0.46-0.13,0.88-0.23,1.24C27.27,26.98,26.87,27.02,26.46,27.02 M27.56,27.27
			c-0.3,0.98-0.71,1.57-1.1,1.57c-0.39,0-0.8-0.59-1.11-1.57c0.36,0.06,0.73,0.08,1.11,0.08C26.83,27.35,27.2,27.33,27.56,27.27
			 M26.46,25.41c-0.52,0-1.01-0.03-1.47-0.06c-0.05-0.46-0.07-0.96-0.07-1.48c0-0.52,0.03-1.01,0.07-1.47
			c0.46-0.05,0.95-0.08,1.47-0.08c0.52,0,1.01,0.03,1.47,0.08c0.05,0.46,0.08,0.95,0.08,1.47c0,0.53-0.03,1.02-0.08,1.48
			C27.47,25.38,26.98,25.41,26.46,25.41 M21.49,23.85c0.02-0.37,0.57-0.77,1.5-1.07c-0.05,0.35-0.07,0.7-0.07,1.08
			c0,0.38,0.02,0.74,0.07,1.08c-0.91-0.28-1.45-0.66-1.5-1.04V23.85z M23.25,23.87c0-0.41,0.04-0.81,0.1-1.18
			c0.38-0.1,0.81-0.18,1.29-0.26c-0.04,0.46-0.06,0.95-0.06,1.43c0,0.5,0.02,0.97,0.06,1.43c-0.48-0.07-0.91-0.15-1.29-0.24
			C23.29,24.68,23.25,24.28,23.25,23.87 M26.46,18.89L26.46,18.89c0.37,0.02,0.76,0.55,1.06,1.46c-0.34-0.05-0.7-0.07-1.06-0.07
			c-0.36,0-0.73,0.02-1.06,0.07C25.68,19.44,26.08,18.91,26.46,18.89 M26.46,20.61c0.4,0,0.8,0.03,1.17,0.09
			c0.11,0.39,0.2,0.86,0.26,1.35c-0.46-0.03-0.94-0.06-1.43-0.06c-0.49,0-0.98,0.02-1.43,0.06c0.06-0.49,0.15-0.96,0.26-1.35
			C25.66,20.65,26.05,20.61,26.46,20.61 M28.26,22.43c0.48,0.07,0.92,0.15,1.3,0.26c0.06,0.37,0.09,0.77,0.09,1.18
			c0,0.41-0.04,0.81-0.09,1.19c-0.38,0.09-0.82,0.18-1.3,0.24c0.06-0.47,0.08-0.93,0.08-1.43C28.34,23.38,28.32,22.9,28.26,22.43
			 M29.92,22.79c0.94,0.3,1.49,0.7,1.51,1.07c0,0.03-0.01,0.04-0.01,0.06c-0.04,0.37-0.59,0.75-1.5,1.04
			c0.06-0.35,0.07-0.71,0.07-1.08C29.99,23.49,29.97,23.14,29.92,22.79 M30.14,22.51c-0.09-0.04-0.18-0.07-0.28-0.09
			c-0.07-0.39-0.17-0.76-0.3-1.09c0.85,0.43,1.48,1.04,1.74,1.75C31.01,22.86,30.63,22.66,30.14,22.51 M29.5,22.31
			c-0.4-0.08-0.82-0.16-1.28-0.22c-0.05-0.47-0.13-0.92-0.24-1.32c0.4,0.08,0.78,0.2,1.13,0.33C29.27,21.48,29.4,21.88,29.5,22.31
			 M27.9,20.41c-0.02-0.07-0.05-0.14-0.07-0.22c-0.16-0.47-0.34-0.85-0.55-1.13c0.64,0.27,1.21,0.83,1.63,1.61
			C28.58,20.56,28.25,20.47,27.9,20.41 M25.09,20.19c-0.02,0.07-0.05,0.14-0.07,0.22c-0.36,0.07-0.7,0.16-1.01,0.27
			c0.42-0.78,0.99-1.34,1.63-1.61C25.42,19.34,25.24,19.72,25.09,20.19 M24.91,20.77c-0.1,0.39-0.18,0.85-0.24,1.32
			c-0.45,0.06-0.87,0.13-1.26,0.22c0.1-0.43,0.22-0.83,0.38-1.2C24.14,20.98,24.52,20.85,24.91,20.77 M23.06,22.41
			c-0.1,0.02-0.19,0.05-0.29,0.09c-0.48,0.16-0.88,0.35-1.15,0.56c0.27-0.7,0.89-1.32,1.74-1.75
			C23.23,21.66,23.14,22.03,23.06,22.41 M22.77,25.24c0.1,0.04,0.19,0.07,0.29,0.09c0.07,0.34,0.15,0.66,0.25,0.97
			c-0.76-0.41-1.33-0.94-1.61-1.57C21.97,24.91,22.32,25.09,22.77,25.24 M23.41,25.42c0.4,0.1,0.82,0.17,1.26,0.22
			c0.05,0.42,0.13,0.84,0.21,1.21c-0.41-0.09-0.8-0.21-1.16-0.36C23.6,26.15,23.5,25.8,23.41,25.42 M24.99,27.21
			c0.03,0.12,0.06,0.24,0.1,0.33c0.15,0.47,0.33,0.85,0.54,1.12c-0.68-0.27-1.27-0.91-1.7-1.74C24.26,27.04,24.62,27.14,24.99,27.21
			 M27.83,27.55c0.03-0.09,0.07-0.22,0.1-0.33c0.37-0.07,0.73-0.18,1.04-0.29c-0.42,0.83-1.01,1.47-1.69,1.74
			C27.48,28.4,27.67,28.02,27.83,27.55 M28.02,26.85c0.09-0.37,0.17-0.78,0.2-1.21c0.46-0.05,0.88-0.12,1.28-0.22
			c-0.09,0.37-0.2,0.73-0.33,1.06C28.82,26.64,28.44,26.76,28.02,26.85 M29.85,25.32c0.1-0.02,0.19-0.05,0.28-0.09
			c0.46-0.15,0.82-0.33,1.08-0.51c-0.28,0.63-0.85,1.16-1.61,1.57C29.71,25.98,29.79,25.66,29.85,25.32 M31.1,22.1
			c-0.42-0.5-1.01-0.93-1.73-1.25c-0.32-0.69-0.75-1.26-1.25-1.66C29.49,19.68,30.58,20.75,31.1,22.1 M24.79,19.19
			c-0.5,0.4-0.92,0.97-1.24,1.66c-0.72,0.31-1.31,0.75-1.74,1.25C22.33,20.75,23.42,19.68,24.79,19.19 M21.74,25.42
			c0.41,0.53,1.02,0.99,1.75,1.32c0.32,0.76,0.77,1.38,1.3,1.81C23.36,28.04,22.22,26.88,21.74,25.42 M28.12,28.55
			c0.54-0.42,0.98-1.04,1.31-1.81c0.74-0.33,1.34-0.78,1.74-1.32C30.69,26.88,29.56,28.04,28.12,28.55"/>
		<path class="st4" d="M17.31,24.2c0,0,0.76,0.28,1.04,0.52c0.28,0.26,0.55,1.21,0.87,1.83c0.31,0.62,0.98,1.79,2.72,2.41
			c1.74,0.62,4.17,1.03,3.98,6.82c0,0-0.23,0.22-0.74-1.12c-0.5-1.35-0.59-2.08-1.9-2.84C21.97,31.07,18.9,30.32,17.31,24.2"/>
		<path class="st4" d="M35.61,24.2c0,0-0.76,0.28-1.04,0.52c-0.29,0.26-0.57,1.21-0.87,1.83c-0.31,0.62-0.99,1.79-2.72,2.41
			c-1.74,0.62-4.18,1.03-3.98,6.82c0,0,0.22,0.22,0.73-1.12c0.5-1.35,0.59-2.08,1.91-2.84C30.95,31.07,34.01,30.32,35.61,24.2"/>
		<path class="st3" d="M17.31,23.37c0,0,0.76,0.26,1.04,0.52c0.28,0.25,0.55,1.21,0.87,1.82c0.31,0.62,0.98,1.8,2.72,2.41
			c1.74,0.62,4.17,1.04,3.98,6.83c0,0-0.23,0.22-0.74-1.13c-0.5-1.35-0.59-2.08-1.9-2.84C21.97,30.24,18.9,29.48,17.31,23.37"/>
		<path class="st5" d="M17.31,23.87c0,0,0.76,0.28,1.04,0.53c0.28,0.26,0.55,1.2,0.87,1.82c0.31,0.62,0.98,1.79,2.72,2.42
			c1.74,0.61,4.17,1.04,3.98,6.82c0,0-0.23,0.22-0.74-1.12c-0.5-1.34-0.59-2.07-1.9-2.83C21.97,30.73,18.9,29.99,17.31,23.87"/>
		<path class="st3" d="M35.61,23.37c0,0-0.76,0.26-1.04,0.52c-0.29,0.25-0.57,1.21-0.87,1.82c-0.31,0.62-0.99,1.8-2.72,2.41
			c-1.74,0.62-4.18,1.04-3.98,6.83c0,0,0.22,0.22,0.73-1.13c0.5-1.35,0.59-2.08,1.91-2.84C30.95,30.24,34.01,29.48,35.61,23.37"/>
		<path class="st5" d="M35.61,23.87c0,0-0.76,0.28-1.04,0.53c-0.29,0.26-0.57,1.2-0.87,1.82c-0.31,0.62-0.99,1.79-2.72,2.42
			c-1.74,0.61-4.18,1.04-3.98,6.82c0,0,0.22,0.22,0.73-1.12c0.5-1.34,0.59-2.07,1.91-2.83C30.95,30.73,34.01,29.99,35.61,23.87"/>
		<path class="st4" d="M27.18,24.51l-0.56-0.51c0,0,0-0.22-0.16-0.28c-0.16,0.05-0.16,0.28-0.16,0.28l-0.57,0.51
			c-0.53,0.47-0.07,0.69,0.18,0.83c0.25,0.14,0.27,0.44,0.27,0.44l-0.08,2c-0.13,0.26,0.03,0.34,0.03,0.34s0.12-0.05,0.14-0.1
			c0.01-0.05-0.04-0.2-0.04-0.2s0.07-0.41,0.11-0.72c0.04-0.31,0.12-0.31,0.12-0.31s0.08,0,0.12,0.31c0.04,0.31,0.12,0.72,0.12,0.72
			s-0.06,0.15-0.04,0.2c0.02,0.05,0.13,0.1,0.13,0.1s0.18-0.07,0.04-0.34l-0.09-2c0,0,0.02-0.3,0.27-0.44
			C27.26,25.2,27.71,24.98,27.18,24.51"/>
	</g>
	<g>
		<path class="st6" d="M197.1,26.69c0-0.04,0-0.08,0-0.12c0-0.11-0.01-0.21-0.01-0.31c0,0.04,0,0.08,0,0.12
			C197.1,26.48,197.1,26.58,197.1,26.69"/>
		<path class="st7" d="M197.06,7.2l-0.12,0.11c-0.09-0.08-0.18-0.15-0.28-0.19c-0.1-0.04-0.2-0.07-0.3-0.07
			c-0.12,0-0.24,0.03-0.35,0.09c-0.11,0.06-0.19,0.14-0.25,0.24c-0.06,0.1-0.09,0.21-0.09,0.32c0,0.12,0.03,0.23,0.09,0.33
			c0.06,0.1,0.15,0.19,0.26,0.25c0.11,0.06,0.23,0.09,0.36,0.09c0.16,0,0.29-0.04,0.4-0.13c0.11-0.09,0.18-0.21,0.2-0.35h-0.49V7.75
			h0.67c0,0.24-0.07,0.43-0.21,0.57c-0.14,0.14-0.33,0.21-0.56,0.21c-0.29,0-0.51-0.1-0.68-0.29c-0.13-0.15-0.19-0.32-0.19-0.52
			c0-0.15,0.04-0.28,0.11-0.41c0.07-0.13,0.17-0.22,0.3-0.3c0.13-0.07,0.27-0.11,0.43-0.11c0.13,0,0.25,0.02,0.37,0.07
			C196.83,7.02,196.95,7.1,197.06,7.2"/>
		<polygon class="st7" points="197.44,6.94 197.6,6.94 197.6,8.34 198.19,8.34 198.19,8.49 197.44,8.49 		"/>
		<path class="st7" d="M199.17,6.9c0.23,0,0.43,0.08,0.59,0.23c0.16,0.16,0.24,0.35,0.24,0.58c0,0.23-0.08,0.42-0.24,0.58
			c-0.16,0.16-0.35,0.24-0.58,0.24c-0.23,0-0.42-0.08-0.58-0.24c-0.16-0.16-0.24-0.35-0.24-0.57c0-0.15,0.04-0.29,0.11-0.41
			c0.07-0.13,0.17-0.23,0.29-0.3C198.89,6.94,199.03,6.9,199.17,6.9 M199.18,7.05c-0.11,0-0.22,0.03-0.33,0.09
			c-0.1,0.06-0.18,0.14-0.24,0.24c-0.06,0.1-0.09,0.21-0.09,0.34c0,0.18,0.06,0.34,0.19,0.47c0.13,0.13,0.28,0.19,0.46,0.19
			c0.12,0,0.23-0.03,0.33-0.09c0.1-0.06,0.18-0.14,0.24-0.24c0.06-0.1,0.09-0.21,0.09-0.34c0-0.12-0.03-0.23-0.09-0.33
			c-0.06-0.1-0.14-0.18-0.24-0.24C199.41,7.08,199.3,7.05,199.18,7.05"/>
		<path class="st7" d="M200.31,6.94h0.31c0.17,0,0.29,0.01,0.35,0.02c0.09,0.02,0.17,0.07,0.22,0.14c0.06,0.07,0.09,0.15,0.09,0.26
			c0,0.08-0.02,0.16-0.06,0.22c-0.04,0.06-0.1,0.11-0.17,0.14c-0.07,0.03-0.18,0.05-0.3,0.05l0.56,0.72h-0.19l-0.56-0.72h-0.09v0.72
			h-0.15V6.94z M200.47,7.09v0.53l0.27,0c0.1,0,0.18-0.01,0.23-0.03c0.05-0.02,0.09-0.05,0.12-0.09c0.03-0.04,0.04-0.09,0.04-0.14
			c0-0.05-0.01-0.1-0.04-0.14c-0.03-0.04-0.06-0.07-0.11-0.09c-0.05-0.02-0.12-0.03-0.23-0.03H200.47z"/>
		<rect x="201.59" y="6.94" class="st7" width="0.15" height="1.55"/>
		<path class="st7" d="M202.83,6.9c0.23,0,0.43,0.08,0.59,0.23c0.16,0.16,0.24,0.35,0.24,0.58c0,0.23-0.08,0.42-0.24,0.58
			c-0.16,0.16-0.35,0.24-0.58,0.24c-0.23,0-0.42-0.08-0.58-0.24c-0.16-0.16-0.24-0.35-0.24-0.57c0-0.15,0.04-0.29,0.11-0.41
			c0.07-0.13,0.17-0.23,0.29-0.3C202.56,6.94,202.69,6.9,202.83,6.9 M202.84,7.05c-0.11,0-0.22,0.03-0.33,0.09
			c-0.1,0.06-0.18,0.14-0.24,0.24c-0.06,0.1-0.09,0.21-0.09,0.34c0,0.18,0.06,0.34,0.19,0.47c0.13,0.13,0.28,0.19,0.46,0.19
			c0.12,0,0.23-0.03,0.33-0.09c0.1-0.06,0.18-0.14,0.24-0.24c0.06-0.1,0.09-0.21,0.09-0.34c0-0.12-0.03-0.23-0.09-0.33
			c-0.06-0.1-0.14-0.18-0.24-0.24C203.07,7.08,202.96,7.05,202.84,7.05"/>
		<path class="st7" d="M203.97,6.94h0.15v0.93c0,0.11,0,0.18,0.01,0.21c0.01,0.06,0.03,0.11,0.05,0.15c0.03,0.04,0.07,0.08,0.13,0.1
			c0.06,0.03,0.12,0.04,0.18,0.04c0.05,0,0.1-0.01,0.15-0.03c0.05-0.02,0.09-0.05,0.12-0.09c0.03-0.04,0.05-0.09,0.07-0.14
			c0.01-0.04,0.02-0.12,0.02-0.24V6.94H205v0.93c0,0.14-0.01,0.25-0.04,0.33c-0.03,0.09-0.08,0.16-0.16,0.22
			c-0.08,0.06-0.18,0.09-0.29,0.09c-0.12,0-0.23-0.03-0.32-0.09c-0.09-0.06-0.15-0.14-0.18-0.24c-0.02-0.06-0.03-0.17-0.03-0.33
			V6.94z"/>
		<path class="st7" d="M205.22,8.2l0.13-0.08c0.09,0.17,0.2,0.26,0.32,0.26c0.05,0,0.1-0.01,0.15-0.04c0.05-0.02,0.08-0.06,0.1-0.1
			c0.02-0.04,0.04-0.08,0.04-0.13c0-0.05-0.02-0.1-0.05-0.15c-0.05-0.07-0.14-0.15-0.26-0.25c-0.13-0.1-0.21-0.17-0.24-0.21
			c-0.05-0.07-0.08-0.15-0.08-0.24c0-0.07,0.02-0.13,0.05-0.18c0.03-0.06,0.08-0.1,0.14-0.13c0.06-0.03,0.12-0.05,0.19-0.05
			c0.07,0,0.14,0.02,0.2,0.05c0.06,0.04,0.13,0.1,0.2,0.2l-0.13,0.1c-0.06-0.08-0.11-0.13-0.15-0.15c-0.04-0.02-0.09-0.04-0.13-0.04
			c-0.06,0-0.11,0.02-0.15,0.06c-0.04,0.04-0.06,0.08-0.06,0.14c0,0.03,0.01,0.07,0.02,0.1c0.01,0.03,0.04,0.07,0.08,0.1
			c0.02,0.02,0.09,0.07,0.2,0.15c0.13,0.1,0.23,0.19,0.28,0.26c0.05,0.08,0.07,0.15,0.07,0.23c0,0.11-0.04,0.21-0.13,0.29
			c-0.09,0.08-0.19,0.12-0.31,0.12c-0.09,0-0.18-0.02-0.26-0.08C205.35,8.4,205.28,8.32,205.22,8.2"/>
		<polygon class="st8" points="213.68,11.44 213.13,11.59 213.34,11.07 213.02,10.6 213.59,10.63 213.93,10.18 214.08,10.73 
			214.61,10.92 214.14,11.23 214.12,11.79 		"/>
		<polygon class="st8" points="211.49,9.83 211.1,10.24 211.01,9.68 210.5,9.43 211.01,9.18 211.08,8.61 211.48,9.02 212.04,8.92 
			211.78,9.42 212.05,9.92 		"/>
		<polygon class="st8" points="208.98,8.76 208.84,9.31 208.49,8.87 207.92,8.91 208.23,8.43 208.02,7.91 208.56,8.06 209,7.69 
			209.02,8.26 209.51,8.56 		"/>
		<polygon class="st8" points="216.57,15.6 216.16,15.21 216.73,15.12 216.97,14.61 217.23,15.12 217.79,15.19 217.39,15.59 
			217.49,16.15 216.98,15.89 216.48,16.16 		"/>
		<polygon class="st8" points="218.38,17.87 217.99,18.26 218.09,18.8 217.6,18.55 217.12,18.81 217.21,18.27 216.81,17.89 
			217.35,17.8 217.59,17.31 217.84,17.8 		"/>
		<polygon class="st8" points="215.46,13.36 214.91,13.22 215.36,12.87 215.31,12.3 215.79,12.61 216.31,12.4 216.16,12.95 
			216.53,13.38 215.96,13.41 215.67,13.89 		"/>
		<path class="st6" d="M199.66,19.74c-2.24-3.43-6.11-5.71-10.51-5.71c-0.65,0-1.31,0.05-1.96,0.15l-0.36,0.06l6.62-10.23
			l-3.27-2.11l-11.54,17.85l-0.07,0.11c-1.28,2.01-1.95,4.33-1.95,6.71c0,6.91,5.63,12.54,12.54,12.54c1.03,0,2.39-0.15,2.62-0.3
			c4.36-3.71,6.16-5.5,8-7.16c0,0,0.62-0.54,0.69-0.66c1.32-2.3-2.66-2.1-2.66-4.61C197.79,23.95,198.47,21.67,199.66,19.74
			 M197.8,26.57c0,4.77-3.88,8.65-8.65,8.65c-4.77,0-8.65-3.88-8.65-8.65c0-4.77,3.88-8.65,8.65-8.65
			C193.92,17.93,197.8,21.8,197.8,26.57"/>
		<path class="st6" d="M201.68,26.37c0-0.04,0-0.08,0-0.12c-0.06-2.4-0.79-4.63-2.02-6.52c-1.77-1.76-1.87,4.2-1.87,6.63
			c0,2.51,1.31,2.75,2.57,4.72c0.85-0.82,1.38-2.96,1.33-4.41C201.68,26.58,201.68,26.48,201.68,26.37"/>
		<path class="st9" d="M194.8,14.52c0.56-0.84,1.48-2.08,2.77-3.01c2.18-1.57,4.75-2.35,7.7-2.35c2.95,0,5.52,0.99,7.71,2.96
			c2.19,1.98,3.29,4.31,3.29,7.02c0,1.31-0.28,2.51-0.83,3.59c-0.55,1.09-1.54,2.27-2.95,3.55l-9.63,8.69h12.87v3.82h-23.07
			l17.21-15.52c1.29-1.2,1.93-2.52,1.93-3.96c0-1.69-0.68-3.16-2.04-4.41c-1.36-1.24-2.96-1.87-4.79-1.87
			c-1.52,0-2.94,0.41-4.28,1.24c-1.02,0.63-2.07,1.83-2.55,2.99c0,0-1.1-1.35-3.54-2.45"/>
		<path class="st6" d="M201.68,26.26c-0.06-2.4-0.79-4.63-2.02-6.52c-1.77-1.76-1.82,3.09-1.87,6.63"/>
	</g>
</g>
</svg>
